# xmcd CD database file
#
# Track frame offsets:
#	150
#	15712
#	28545
#	43395
#	56627
#	72332
#	85325
#	96392
#	109000
#	119080
#	131202
#	143797
#
# Disc length: 2081 seconds
#
# Revision: 2
# Processed by: cddbd v1.5.2PL0 Copyright (c) Steve Scherf et al.
# Submitted via: CDex 1.51
#
DISCID=b5081f0c
DTITLE=Nat King Cole - Nat King Cole
DYEAR=1900
DGENRE=Jazz
TTITLE0=Too Young
TTITLE1=Ramblin Rose
TTITLE2=Stardust
TTITLE3=Nature Boy
TTITLE4=Mona Lisa
TTITLE5=Cachito
TTITLE6=Those Lazy Hazy Crazy of Summer
TTITLE7=Quizas,Quizas,Quizas
TTITLE8=A Quellos Ojos Verdes
TTITLE9=To Quiero Dijiste
TTITLE10=Solamente Una Vez
TTITLE11=Love Letters
EXTD=
EXTT0=
EXTT1=
EXTT2=
EXTT3=
EXTT4=
EXTT5=
EXTT6=
EXTT7=
EXTT8=
EXTT9=
EXTT10=
EXTT11=
PLAYORDER=
